 <svg className="pt-2" width="80" height="26" viewBox="0 0 63 26" fill="none" xmlns="http://www.w3.org/2000/svg">
          <g clipPath="url(#clip0_3338_130823)">
            <g clipPath="url(#clip1_3338_130823)">
              <g clipPath="url(#clip2_3338_130823)">
                <g opacity="0.4">
                  <path d="M55.8223 21.8369H52.3516V4.74368H55.6586V8.68571C56.5426 5.67122 58.0488 4.54492 60.5045 4.54492C60.9629 4.54492 61.6177 4.6443 62.0434 4.74368V7.82443L60.3735 7.75817C57.6231 7.75817 55.8223 9.91138 55.8223 13.721V21.8369Z" fill="white" />
                  <path d="M43.7556 22.1687C38.3858 22.1687 35.4062 18.7236 35.4062 13.2909C35.4062 8.02385 38.2221 4.41309 43.5592 4.41309C48.8962 4.41309 51.7122 8.09011 51.7122 12.9928C51.7122 13.324 51.6794 13.6222 51.6467 13.9534H38.8771C38.9753 17.9948 40.8743 19.7505 43.7556 19.7505C46.1458 19.7505 47.652 18.4917 48.1759 16.5373H51.352C50.5989 20.0155 48.1431 22.1687 43.7556 22.1687ZM43.5592 6.83131C40.9397 6.83131 39.2372 8.42137 38.8771 11.6346H48.2413C47.8812 8.42137 46.1786 6.83131 43.5592 6.83131Z" fill="white" />
                  <path d="M27.4588 22.1687C22.089 22.1687 19.1094 18.7236 19.1094 13.2909C19.1094 8.02385 21.9253 4.41309 27.2623 4.41309C32.5993 4.41309 35.4152 8.09011 35.4152 12.9928C35.4152 13.324 35.3825 13.6222 35.3497 13.9534H22.5801C22.6783 17.9948 24.5774 19.7505 27.4588 19.7505C29.849 19.7505 31.3551 18.4917 31.879 16.5373H35.055C34.302 20.0155 31.8463 22.1687 27.4588 22.1687ZM27.2623 6.83131C24.6429 6.83131 22.9403 8.42137 22.5801 11.6346H31.9445C31.5843 8.42137 29.8817 6.83131 27.2623 6.83131Z" fill="white" />
                  <path d="M19.2761 21.8402H5.85156V19.4882L14.9213 7.26467H6.17906V4.74707H18.9487V7.09904L9.87896 19.3226H19.2761V21.8402Z" fill="white" />
                </g>
              </g>
            </g>
          </g>
          <defs>
            <clipPath id="clip0_3338_130823">
              <rect width="82" height="25" fill="white" transform="translate(-19.3906 0.34375)" />
            </clipPath>
            <clipPath id="clip1_3338_130823">
              <rect width="82" height="25" fill="white" transform="translate(-19.3906 0.34375)" />
            </clipPath>
            <clipPath id="clip2_3338_130823">
              <rect width="82" height="24" fill="white" transform="translate(-19.3906 0.84375)" />
            </clipPath>
          </defs>
        </svg>