<svg width="63" height="21" viewBox="0 0 63 21" fill="none" xmlns="http://www.w3.org/2000/svg">
<g opacity="0.4">
<path d="M55.7896 19.4931H52.3188V2.39993H55.6258V6.34196C56.5098 3.32747 58.016 2.20117 60.4717 2.20117C60.9301 2.20117 61.585 2.30055 62.0107 2.39993V5.48068L60.3407 5.41442C57.5903 5.41442 55.7896 7.56763 55.7896 11.3772V19.4931Z" fill="white"/>
<path d="M43.7234 19.826C38.3536 19.826 35.374 16.3809 35.374 10.9482C35.374 5.68107 38.1899 2.07031 43.527 2.07031C48.864 2.07031 51.6799 5.74733 51.6799 10.6501C51.6799 10.9813 51.6471 11.2795 51.6144 11.6107H38.8448C38.943 15.6521 40.8421 17.4078 43.7234 17.4078C46.1136 17.4078 47.6198 16.149 48.1437 14.1946H51.3197C50.5666 17.6728 48.1109 19.826 43.7234 19.826ZM43.527 4.48853C40.9075 4.48853 39.2049 6.07859 38.8448 9.29187H48.2091C47.849 6.07859 46.1464 4.48853 43.527 4.48853Z" fill="white"/>
<path d="M27.43 19.826C22.0602 19.826 19.0806 16.3809 19.0806 10.9482C19.0806 5.68107 21.8965 2.07031 27.2335 2.07031C32.5705 2.07031 35.3864 5.74733 35.3864 10.6501C35.3864 10.9813 35.3537 11.2795 35.3209 11.6107H22.5513C22.6495 15.6521 24.5486 17.4078 27.43 17.4078C29.8202 17.4078 31.3263 16.149 31.8502 14.1946H35.0262C34.2732 17.6728 31.8175 19.826 27.43 19.826ZM27.2335 4.48853C24.6141 4.48853 22.9115 6.07859 22.5513 9.29187H31.9157C31.5555 6.07859 29.8529 4.48853 27.2335 4.48853Z" fill="white"/>
<path d="M19.2448 19.4955H5.82031V17.1435L14.89 4.91994H6.14781V2.40234H18.9174V4.75431L9.84771 16.9779H19.2448V19.4955Z" fill="white"/>
</g>
</svg>
