  <svg className="pt-2" width="80" height="26" viewBox="0 0 80 26" fill="none" xmlns="http://www.w3.org/2000/svg">
          <g clip-path="url(#clip0_3338_130829)">
            <g clip-path="url(#clip1_3338_130829)">
              <g clip-path="url(#clip2_3338_130829)">
                <g opacity="0.4">
                  <path d="M71.6606 24.7264C68.7257 24.7264 66.879 23.4365 65.9556 21.2533V24.3958H62.625V0.84375H66.1205V10.2381C67.0768 8.12104 68.9235 6.99637 71.6606 6.99637C76.2444 6.99637 79.1134 10.2711 79.1134 15.8615C79.1134 21.4517 76.2444 24.7264 71.6606 24.7264ZM70.8692 22.0471C73.6722 22.0471 75.6178 20.1616 75.6178 15.8615C75.6178 11.5942 73.6722 9.67573 70.8692 9.67573C68.0332 9.67573 66.1205 11.5942 66.1205 15.8615C66.1205 20.1616 68.0332 22.0471 70.8692 22.0471Z" fill="white" />
                  <path d="M52.2257 24.7302C48.2685 24.7302 46.125 22.7455 46.125 19.5699C46.125 17.0229 47.6749 15.0051 51.8959 14.6412L55.1936 14.3765C57.2052 14.178 57.7988 13.715 57.7988 12.6234C57.7988 10.6717 56.6776 9.51397 54.2043 9.51397C51.8959 9.51397 50.6428 10.5063 50.4779 12.6234H47.0484C47.0484 9.18319 49.1589 7 54.1713 7C59.1508 7 61.2943 9.18319 61.2943 12.6234V20.0329C61.2943 22.3484 61.4922 23.8369 61.8219 24.3993H58.6891C58.1615 23.7377 57.9637 23.0432 57.9637 21.4554C57.0403 23.6385 55.1606 24.7302 52.2257 24.7302ZM53.182 22.3153C56.1829 22.3153 57.7988 19.9667 57.7988 17.1551V15.6996C57.436 16.1628 56.5127 16.4274 55.1936 16.5267L53.0171 16.725C50.5769 16.9235 49.6205 17.949 49.6205 19.3384C49.6205 21.0915 50.6758 22.3153 53.182 22.3153Z" fill="white" />
                  <path d="M45.4642 24.3958H41.9688V0.84375H45.4642V24.3958Z" fill="white" />
                  <path d="M32.8934 24.7302C27.4852 24.7302 24.4844 21.29 24.4844 15.8651C24.4844 10.4402 27.4852 7 32.8934 7C38.3016 7 41.3025 10.4402 41.3025 15.8651C41.3025 21.29 38.3016 24.7302 32.8934 24.7302ZM32.8934 22.0508C36.0262 22.0508 37.807 19.9999 37.807 15.8651C37.807 11.7634 36.0262 9.67936 32.8934 9.67936C29.7606 9.67936 27.9799 11.7634 27.9799 15.8651C27.9799 19.9999 29.7606 22.0508 32.8934 22.0508Z" fill="white" />
                  <path fill-rule="evenodd" clip-rule="evenodd" d="M18.6832 24.274H10.439V19.2519C7.83668 20.8441 4.77904 21.7616 1.50781 21.7616V13.4918C6.44037 13.4918 10.439 9.48091 10.439 4.53311V2.22168H18.6832V24.274Z" fill="white" />
                  <path fill-rule="evenodd" clip-rule="evenodd" d="M1.50781 3.59962L6.31679 3.59961L6.3168 9.1127L1.50782 9.11271L1.50781 3.59962Z" fill="white" />
                </g>
              </g>
            </g>
          </g>
          <defs>
            <clipPath id="clip0_3338_130829">
              <rect width="79" height="25" fill="white" transform="translate(0.609375 0.34375)" />
            </clipPath>
            <clipPath id="clip1_3338_130829">
              <rect width="79" height="25" fill="white" transform="translate(0.609375 0.34375)" />
            </clipPath>
            <clipPath id="clip2_3338_130829">
              <rect width="79" height="24" fill="white" transform="translate(0.609375 0.84375)" />
            </clipPath>
          </defs>
        </svg>