<svg width="80" height="25" viewBox="0 0 80 25" fill="none" xmlns="http://www.w3.org/2000/svg">
<g clip-path="url(#clip0_233_16527)">
<g clip-path="url(#clip1_233_16527)">
<g clip-path="url(#clip2_233_16527)">
<g opacity="0.4">
<path d="M71.6245 24.3827C68.6896 24.3827 66.8429 23.0927 65.9195 20.9095V24.052H62.5889V0.5H66.0844V9.89432C67.0407 7.77729 68.8874 6.65262 71.6245 6.65262C76.2083 6.65262 79.0773 9.92739 79.0773 15.5177C79.0773 21.108 76.2083 24.3827 71.6245 24.3827ZM70.8331 21.7034C73.6361 21.7034 75.5817 19.8179 75.5817 15.5177C75.5817 11.2505 73.6361 9.33198 70.8331 9.33198C67.9971 9.33198 66.0844 11.2505 66.0844 15.5177C66.0844 19.8179 67.9971 21.7034 70.8331 21.7034Z" fill="white"/>
<path d="M52.1969 24.3864C48.2397 24.3864 46.0962 22.4017 46.0962 19.2261C46.0962 16.6791 47.6461 14.6613 51.8671 14.2974L55.1648 14.0328C57.1764 13.8343 57.77 13.3712 57.77 12.2796C57.77 10.328 56.6488 9.17022 54.1755 9.17022C51.8671 9.17022 50.614 10.1626 50.4491 12.2796H47.0196C47.0196 8.83944 49.1301 6.65625 54.1425 6.65625C59.122 6.65625 61.2655 8.83944 61.2655 12.2796V19.6892C61.2655 22.0047 61.4634 23.4932 61.7931 24.0556H58.6603C58.1327 23.394 57.9349 22.6994 57.9349 21.1116C57.0115 23.2948 55.1318 24.3864 52.1969 24.3864ZM53.1532 21.9716C56.1541 21.9716 57.77 19.623 57.77 16.8114V15.3559C57.4072 15.819 56.4839 16.0836 55.1648 16.1829L52.9883 16.3813C50.5481 16.5798 49.5917 17.6053 49.5917 18.9946C49.5917 20.7477 50.647 21.9716 53.1532 21.9716Z" fill="white"/>
<path d="M45.435 24.052H41.9395V0.5H45.435V24.052Z" fill="white"/>
<path d="M32.8611 24.3864C27.4529 24.3864 24.4521 20.9462 24.4521 15.5213C24.4521 10.0964 27.4529 6.65625 32.8611 6.65625C38.2693 6.65625 41.2702 10.0964 41.2702 15.5213C41.2702 20.9462 38.2693 24.3864 32.8611 24.3864ZM32.8611 21.707C35.9939 21.707 37.7747 19.6561 37.7747 15.5213C37.7747 11.4196 35.9939 9.33561 32.8611 9.33561C29.7283 9.33561 27.9476 11.4196 27.9476 15.5213C27.9476 19.6561 29.7283 21.707 32.8611 21.707Z" fill="white"/>
<path fill-rule="evenodd" clip-rule="evenodd" d="M18.651 23.9313H10.4068V18.9092C7.80446 20.5014 4.74682 21.4188 1.47559 21.4188V13.1491C6.40815 13.1491 10.4068 9.13814 10.4068 4.19034V1.87891H18.651V23.9313Z" fill="white"/>
<path fill-rule="evenodd" clip-rule="evenodd" d="M1.47559 3.25587L6.28457 3.25586L6.28458 8.76895L1.4756 8.76896L1.47559 3.25587Z" fill="white"/>
</g>
</g>
</g>
</g>
<defs>
<clipPath id="clip0_233_16527">
<rect width="79" height="25" fill="white" transform="translate(0.580078)"/>
</clipPath>
<clipPath id="clip1_233_16527">
<rect width="79" height="25" fill="white" transform="translate(0.580078)"/>
</clipPath>
<clipPath id="clip2_233_16527">
<rect width="79" height="24" fill="white" transform="translate(0.580078 0.5)"/>
</clipPath>
</defs>
</svg>
