<svg width="138" height="25" viewBox="0 0 138 25" fill="none" xmlns="http://www.w3.org/2000/svg">
<g clip-path="url(#clip0_233_16530)">
<g clip-path="url(#clip1_233_16530)">
<g clip-path="url(#clip2_233_16530)">
<g opacity="0.4">
<path d="M110.924 24.3872C104.977 24.3872 102.354 21.9008 102.354 18.2239H107.566C107.775 19.9748 108.615 20.9203 110.993 20.9203C113.232 20.9203 114.141 20.0449 114.141 18.9243C114.141 17.9087 113.302 17.3484 111.868 17.1383L109 16.7531C104.453 16.0877 102.844 14.5819 102.844 11.4303C102.844 8.10351 105.292 5.61719 110.924 5.61719C116.555 5.61719 119.003 8.10351 119.003 11.5003H113.792C113.617 10.1696 113.092 9.08404 110.854 9.08404C108.93 9.08404 108.195 9.85444 108.195 10.975C108.195 11.9555 108.72 12.4108 109.909 12.5859L112.742 12.9711C117.045 13.6014 119.493 14.9321 119.493 18.5741C119.493 21.9008 116.87 24.3872 110.924 24.3872Z" fill="white"/>
<path d="M98.7831 24.2427C94.3758 24.2427 92.9767 22.8419 92.9767 18.5346V9.70991H90.2485V5.96291H92.9767V0.5H98.2934V5.96291H102.001V9.70991H98.2934V18.7447C98.2934 20.0054 98.853 20.4606 100.112 20.4606H102.001V24.0326C101.197 24.1026 99.6225 24.2427 98.7831 24.2427Z" fill="white"/>
<path d="M82.0088 24.3872C76.0276 24.3872 72.6348 20.6402 72.6348 15.0022C72.6348 9.36418 76.0276 5.61719 82.0088 5.61719C88.025 5.61719 90.8232 9.29415 90.8232 13.0411H85.7864C85.5066 11.0451 84.3873 9.64433 82.0088 9.64433C79.4555 9.64433 77.9864 11.3602 77.9864 15.0022C77.9864 18.6441 79.4555 20.36 82.0088 20.36C84.0376 20.36 85.4716 19.3445 85.7864 16.8231H90.8232C90.8232 20.9203 87.8152 24.3872 82.0088 24.3872Z" fill="white"/>
<path d="M60.8664 24.3872C56.5641 24.3872 54.2905 22.251 54.2905 18.9243C54.2905 16.1228 55.8995 13.8465 60.5166 13.4613L64.3642 13.1462C65.8682 13.0061 66.2879 12.5509 66.2879 11.7804C66.2879 10.2396 65.3435 9.36418 63.5247 9.36418C61.7408 9.36418 60.7614 10.1696 60.5866 11.7804H55.2699C55.2699 8.03348 57.6484 5.61719 63.4547 5.61719C69.261 5.61719 71.6395 8.03348 71.6395 11.7804V19.4145C71.6395 21.8658 71.8494 23.4417 72.1992 24.037H67.3373C66.8476 23.4066 66.5677 22.7063 66.5677 21.5156C65.5534 23.4066 63.8745 24.3872 60.8664 24.3872ZM62.4404 20.8153C64.8888 20.8153 66.2879 18.9593 66.2879 16.7531V15.7376C66.0431 16.0177 65.3435 16.1928 64.3642 16.2979L62.4054 16.4379C60.4117 16.613 59.6422 17.4185 59.6422 18.539C59.6422 19.9048 60.4816 20.8153 62.4404 20.8153Z" fill="white"/>
<path d="M48.7276 24.0355H43.376V5.96583H48.4478V9.8529C49.3572 6.70122 50.9312 5.7207 53.3097 5.7207C53.7994 5.7207 54.6389 5.82575 54.9886 5.96583V10.6234L53.0998 10.5883C50.4415 10.5883 48.7276 12.4794 48.7276 15.7711V24.0355Z" fill="white"/>
<path d="M39.1064 24.2427C34.6992 24.2427 33.3001 22.8419 33.3001 18.5346V9.70991H30.5718V5.96291H33.3001V0.5H38.6167V5.96291H42.3244V9.70991H38.6167V18.7447C38.6167 20.0054 39.1763 20.4606 40.4356 20.4606H42.3244V24.0326C41.5199 24.1026 39.9459 24.2427 39.1064 24.2427Z" fill="white"/>
<path d="M27.4911 24.2427C23.0839 24.2427 21.6847 22.8419 21.6847 18.5346V9.70991H18.9565V5.96291H21.6847V0.5H27.0014V5.96291H30.709V9.70991H27.0014V18.7447C27.0014 20.0054 27.561 20.4606 28.8202 20.4606H30.709V24.0326C29.9045 24.1026 28.3305 24.2427 27.4911 24.2427Z" fill="white"/>
<path d="M8.01772 24.3872C3.71545 24.3872 1.44189 22.251 1.44189 18.9243C1.44189 16.1228 3.05087 13.8465 7.66794 13.4613L11.5155 13.1462C13.0196 13.0061 13.4393 12.5509 13.4393 11.7804C13.4393 10.2396 12.4949 9.36418 10.676 9.36418C8.89216 9.36418 7.91278 10.1696 7.7379 11.7804H2.42127C2.42127 8.03348 4.79976 5.61719 10.6061 5.61719C16.4124 5.61719 18.7909 8.03348 18.7909 11.7804V19.4145C18.7909 21.8658 19.0008 23.4417 19.3505 24.037H14.4886C13.9989 23.4066 13.7191 22.7063 13.7191 21.5156C12.7048 23.4066 11.0258 24.3872 8.01772 24.3872ZM9.59172 20.8153C12.0402 20.8153 13.4393 18.9593 13.4393 16.7531V15.7376C13.1944 16.0177 12.4949 16.1928 11.5155 16.2979L9.55674 16.4379C7.56301 16.613 6.7935 17.4185 6.7935 18.539C6.7935 19.9048 7.63296 20.8153 9.59172 20.8153Z" fill="white"/>
<path fill-rule="evenodd" clip-rule="evenodd" d="M131.153 23.2279C134.153 23.2279 136.586 20.8706 136.586 17.9626C136.586 15.0547 134.153 12.6973 131.153 12.6973C128.152 12.6973 125.72 15.0547 125.72 17.9626C125.72 20.8706 128.152 23.2279 131.153 23.2279ZM131.153 24.1459C134.677 24.1459 137.533 21.3776 137.533 17.9626C137.533 14.5477 134.677 11.7793 131.153 11.7793C127.629 11.7793 124.772 14.5477 124.772 17.9626C124.772 21.3776 127.629 24.1459 131.153 24.1459Z" fill="white"/>
<path d="M130.25 18.2787V17.6665H131.427C131.662 17.6665 131.844 17.6085 131.973 17.4925C132.106 17.3722 132.172 17.2068 132.172 16.9963C132.172 16.8072 132.108 16.6483 131.979 16.5194C131.851 16.3905 131.669 16.326 131.434 16.326H130.25V15.6816H131.467C131.76 15.6816 132.017 15.7396 132.239 15.8556C132.46 15.9673 132.631 16.122 132.751 16.3196C132.875 16.5129 132.937 16.7342 132.937 16.9834C132.937 17.2454 132.875 17.4731 132.751 17.6665C132.631 17.8598 132.46 18.0102 132.239 18.1176C132.017 18.225 131.76 18.2787 131.467 18.2787H130.25ZM129.725 20.1927V15.6816H130.49V20.1927H129.725ZM132.279 20.1927L130.649 18.2336L131.361 17.9823L133.243 20.1927H132.279Z" fill="white"/>
</g>
</g>
</g>
</g>
<defs>
<clipPath id="clip0_233_16530">
<rect width="137" height="25" fill="white" transform="translate(0.580078)"/>
</clipPath>
<clipPath id="clip1_233_16530">
<rect width="137" height="25" fill="white" transform="translate(0.580078)"/>
</clipPath>
<clipPath id="clip2_233_16530">
<rect width="137" height="24" fill="white" transform="translate(0.580078 0.5)"/>
</clipPath>
</defs>
</svg>
