
        <svg className="pt-2" width="108" height="26" viewBox="0 0 138 26" fill="none" xmlns="http://www.w3.org/2000/svg">
          <g clip-path="url(#clip0_3338_130832)">
            <g clip-path="url(#clip1_3338_130832)">
              <g clip-path="url(#clip2_3338_130832)">
                <g opacity="0.4">
                  <path d="M110.953 24.73C105.006 24.73 102.383 22.2436 102.383 18.5667H107.595C107.804 20.3176 108.644 21.2631 111.022 21.2631C113.261 21.2631 114.17 20.3877 114.17 19.2671C114.17 18.2515 113.331 17.6912 111.897 17.4811L109.029 17.0959C104.482 16.4305 102.873 14.9247 102.873 11.7731C102.873 8.44628 105.321 5.95996 110.953 5.95996C116.584 5.95996 119.032 8.44628 119.032 11.8431H113.821C113.646 10.5124 113.121 9.42681 110.883 9.42681C108.959 9.42681 108.224 10.1972 108.224 11.3178C108.224 12.2983 108.749 12.7536 109.938 12.9287L112.771 13.3139C117.074 13.9442 119.522 15.2749 119.522 18.9169C119.522 22.2436 116.899 24.73 110.953 24.73Z" fill="white" />
                  <path d="M98.808 24.5865C94.4007 24.5865 93.0016 23.1856 93.0016 18.8783V10.0537H90.2734V6.30666H93.0016V0.84375H98.3183V6.30666H102.026V10.0537H98.3183V19.0884C98.3183 20.3491 98.8779 20.8043 100.137 20.8043H102.026V24.3764C101.222 24.4464 99.6474 24.5865 98.808 24.5865Z" fill="white" />
                  <path d="M82.0381 24.73C76.0569 24.73 72.6641 20.983 72.6641 15.345C72.6641 9.70695 76.0569 5.95996 82.0381 5.95996C88.0543 5.95996 90.8525 9.63692 90.8525 13.3839H85.8157C85.5359 11.3879 84.4166 9.9871 82.0381 9.9871C79.4848 9.9871 78.0157 11.703 78.0157 15.345C78.0157 18.9869 79.4848 20.7028 82.0381 20.7028C84.0669 20.7028 85.5009 19.6873 85.8157 17.1659H90.8525C90.8525 21.2631 87.8445 24.73 82.0381 24.73Z" fill="white" />
                  <path d="M60.8962 24.73C56.5939 24.73 54.3203 22.5938 54.3203 19.2671C54.3203 16.4656 55.9293 14.1893 60.5464 13.8041L64.394 13.489C65.898 13.3489 66.3177 12.8937 66.3177 12.1232C66.3177 10.5824 65.3733 9.70695 63.5545 9.70695C61.7706 9.70695 60.7912 10.5124 60.6164 12.1232H55.2997C55.2997 8.37625 57.6782 5.95996 63.4845 5.95996C69.2908 5.95996 71.6693 8.37625 71.6693 12.1232V19.7573C71.6693 22.2086 71.8792 23.7845 72.229 24.3798H67.3671C66.8774 23.7494 66.5975 23.0491 66.5975 21.8584C65.5832 23.7494 63.9043 24.73 60.8962 24.73ZM62.4702 21.1581C64.9186 21.1581 66.3177 19.3021 66.3177 17.0959V16.0804C66.0729 16.3605 65.3733 16.5356 64.394 16.6407L62.4352 16.7807C60.4415 16.9558 59.672 17.7613 59.672 18.8818C59.672 20.2476 60.5114 21.1581 62.4702 21.1581Z" fill="white" />
                  <path d="M48.7579 24.3792H43.4062V6.30958H48.4781V10.1967C49.3875 7.04497 50.9615 6.06445 53.34 6.06445C53.8297 6.06445 54.6692 6.1695 55.0189 6.30958V10.9671L53.1301 10.932C50.4718 10.932 48.7579 12.8231 48.7579 16.1148V24.3792Z" fill="white" />
                  <path d="M39.1362 24.5865C34.729 24.5865 33.3299 23.1856 33.3299 18.8783V10.0537H30.6016V6.30666H33.3299V0.84375H38.6465V6.30666H42.3542V10.0537H38.6465V19.0884C38.6465 20.3491 39.2061 20.8043 40.4654 20.8043H42.3542V24.3764C41.5497 24.4464 39.9757 24.5865 39.1362 24.5865Z" fill="white" />
                  <path d="M27.519 24.5865C23.1118 24.5865 21.7126 23.1856 21.7126 18.8783V10.0537H18.9844V6.30666H21.7126V0.84375H27.0293V6.30666H30.7369V10.0537H27.0293V19.0884C27.0293 20.3491 27.5889 20.8043 28.8481 20.8043H30.7369V24.3764C29.9324 24.4464 28.3584 24.5865 27.519 24.5865Z" fill="white" />
                  <path d="M8.04457 24.73C3.7423 24.73 1.46875 22.5938 1.46875 19.2671C1.46875 16.4656 3.07772 14.1893 7.69479 13.8041L11.5423 13.489C13.0464 13.3489 13.4661 12.8937 13.4661 12.1232C13.4661 10.5824 12.5217 9.70695 10.7028 9.70695C8.91901 9.70695 7.93963 10.5124 7.76475 12.1232H2.44812C2.44812 8.37625 4.82661 5.95996 10.6329 5.95996C16.4392 5.95996 18.8177 8.37625 18.8177 12.1232V19.7573C18.8177 22.2086 19.0276 23.7845 19.3773 24.3798H14.5154C14.0257 23.7494 13.7459 23.0491 13.7459 21.8584C12.7316 23.7494 11.0526 24.73 8.04457 24.73ZM9.61857 21.1581C12.067 21.1581 13.4661 19.3021 13.4661 17.0959V16.0804C13.2212 16.3605 12.5217 16.5356 11.5423 16.6407L9.58359 16.7807C7.58986 16.9558 6.82035 17.7613 6.82035 18.8818C6.82035 20.2476 7.65981 21.1581 9.61857 21.1581Z" fill="white" />
                  <path fill-rule="evenodd" clip-rule="evenodd" d="M131.178 23.5726C134.178 23.5726 136.611 21.2153 136.611 18.3073C136.611 15.3994 134.178 13.042 131.178 13.042C128.177 13.042 125.745 15.3994 125.745 18.3073C125.745 21.2153 128.177 23.5726 131.178 23.5726ZM131.178 24.4906C134.702 24.4906 137.558 21.7223 137.558 18.3073C137.558 14.8924 134.702 12.124 131.178 12.124C127.654 12.124 124.797 14.8924 124.797 18.3073C124.797 21.7223 127.654 24.4906 131.178 24.4906Z" fill="white" />
                  <path d="M130.275 18.6225V18.0103H131.452C131.687 18.0103 131.869 17.9523 131.998 17.8363C132.131 17.716 132.197 17.5506 132.197 17.3401C132.197 17.151 132.133 16.9921 132.004 16.8632C131.876 16.7343 131.694 16.6698 131.459 16.6698H130.275V16.0254H131.492C131.785 16.0254 132.042 16.0834 132.264 16.1994C132.485 16.3111 132.656 16.4658 132.776 16.6634C132.9 16.8567 132.962 17.078 132.962 17.3272C132.962 17.5892 132.9 17.8169 132.776 18.0103C132.656 18.2036 132.485 18.354 132.264 18.4614C132.042 18.5688 131.785 18.6225 131.492 18.6225H130.275ZM129.75 20.5365V16.0254H130.515V20.5365H129.75ZM132.304 20.5365L130.674 18.5774L131.386 18.3261L133.268 20.5365H132.304Z" fill="white" />
                </g>
              </g>
            </g>
          </g>
          <defs>
            <clipPath id="clip0_3338_130832">
              <rect width="137" height="25" fill="white" transform="translate(0.609375 0.34375)" />
            </clipPath>
            <clipPath id="clip1_3338_130832">
              <rect width="137" height="25" fill="white" transform="translate(0.609375 0.34375)" />
            </clipPath>
            <clipPath id="clip2_3338_130832">
              <rect width="137" height="24" fill="white" transform="translate(0.609375 0.84375)" />
            </clipPath>
          </defs>
        </svg>