
        <svg className="pt-2" width="66" height="26" viewBox="0 0 66 26" fill="none" xmlns="http://www.w3.org/2000/svg">
          <g clip-path="url(#clip0_3338_130835)">
            <g clip-path="url(#clip1_3338_130835)">
              <g clip-path="url(#clip2_3338_130835)">
                <g opacity="0.4">
                  <path d="M63.3654 24.623C61.9844 24.623 61.1953 23.763 61.1953 22.6714C61.1953 21.5798 61.9844 20.7197 63.3654 20.7197C64.7464 20.7197 65.5026 21.5798 65.5026 22.6714C65.5026 23.763 64.7464 24.623 63.3654 24.623Z" fill="white" />
                  <path d="M61.6356 24.3928H57.7557L53.4155 18.2732L49.0424 24.3928H45.1953L51.4098 15.5277L45.5241 7.32422H49.3712L53.4155 13.0137L57.4269 7.32422H61.3068L55.4212 15.5277L61.6356 24.3928Z" fill="white" />
                  <path d="M36.9579 24.7301C33.0122 24.7301 30.875 22.7454 30.875 19.5699C30.875 17.0228 32.4204 15.005 36.6291 14.6411L39.9172 14.3765C41.9229 14.178 42.5147 13.7149 42.5147 12.6234C42.5147 10.6717 41.3968 9.51398 38.9307 9.51398C36.6291 9.51398 35.3796 10.5063 35.2152 12.6234H31.7957C31.7957 9.18319 33.9 7 38.8979 7C43.8628 7 46.0001 9.18319 46.0001 12.6234V20.033C46.0001 22.3485 46.1974 23.837 46.5262 24.3993H43.4025C42.8764 23.7378 42.6791 23.0431 42.6791 21.4553C41.7585 23.6385 39.8843 24.7301 36.9579 24.7301ZM37.9114 22.3154C40.9036 22.3154 42.5147 19.9668 42.5147 17.1551V15.6997C42.153 16.1628 41.2324 16.4274 39.9172 16.5266L37.747 16.7251C35.3139 16.9236 34.3603 17.949 34.3603 19.3383C34.3603 21.0915 35.4125 22.3154 37.9114 22.3154Z" fill="white" />
                  <path d="M30.2197 24.3958H26.7344V0.84375H30.2197V24.3958Z" fill="white" />
                  <path d="M18.0955 24.7301C12.7031 24.7301 9.71094 21.2899 9.71094 15.8651C9.71094 10.6056 12.5387 7 17.8982 7C23.2577 7 26.0854 10.6717 26.0854 15.5673C26.0854 15.8981 26.0526 16.1958 26.0197 16.5266H13.1963C13.2949 20.5622 15.202 22.3154 18.0955 22.3154C20.4957 22.3154 22.0082 21.0584 22.5343 19.1068H25.7237C24.9675 22.58 22.5015 24.7301 18.0955 24.7301ZM17.8982 9.41474C15.2677 9.41474 13.558 11.0025 13.1963 14.2111H22.6001C22.2384 11.0025 20.5286 9.41474 17.8982 9.41474Z" fill="white" />
                  <path d="M4.52441 24.3989H1.03906V12.6835L4.36 7.33031V11.2667C5.24778 8.25651 6.76029 7.13184 9.22633 7.13184C9.68666 7.13184 10.3443 7.23108 10.7717 7.33031V10.4066L9.09481 10.3405C6.33284 10.3405 4.52441 12.4906 4.52441 16.2946V24.3989Z" fill="white" />
                </g>
              </g>
            </g>
          </g>
          <defs>
            <clipPath id="clip0_3338_130835">
              <rect width="65" height="25" fill="white" transform="translate(0.609375 0.34375)" />
            </clipPath>
            <clipPath id="clip1_3338_130835">
              <rect width="65" height="25" fill="white" transform="translate(0.609375 0.34375)" />
            </clipPath>
            <clipPath id="clip2_3338_130835">
              <rect width="65" height="24" fill="white" transform="translate(0.609375 0.84375)" />
            </clipPath>
          </defs>
        </svg>