<svg width="66" height="25" viewBox="0 0 66 25" fill="none" xmlns="http://www.w3.org/2000/svg">
<g clip-path="url(#clip0_233_16533)">
<g clip-path="url(#clip1_233_16533)">
<g clip-path="url(#clip2_233_16533)">
<g opacity="0.4">
<path d="M63.3381 24.2783C61.9571 24.2783 61.168 23.4183 61.168 22.3267C61.168 21.2351 61.9571 20.375 63.3381 20.375C64.7191 20.375 65.4753 21.2351 65.4753 22.3267C65.4753 23.4183 64.7191 24.2783 63.3381 24.2783Z" fill="white"/>
<path d="M61.6102 24.0491H57.7303L53.3901 17.9295L49.017 24.0491H45.1699L51.3844 15.184L45.4987 6.98047H49.3458L53.3901 12.67L57.4015 6.98047H61.2814L55.3958 15.184L61.6102 24.0491Z" fill="white"/>
<path d="M36.9296 24.3864C32.9839 24.3864 30.8467 22.4017 30.8467 19.2262C30.8467 16.6791 32.3921 14.6613 36.6008 14.2974L39.8889 14.0328C41.8946 13.8343 42.4864 13.3712 42.4864 12.2797C42.4864 10.328 41.3685 9.17023 38.9024 9.17023C36.6008 9.17023 35.3513 10.1626 35.1869 12.2797H31.7674C31.7674 8.83944 33.8717 6.65625 38.8696 6.65625C43.8345 6.65625 45.9718 8.83944 45.9718 12.2797V19.6893C45.9718 22.0048 46.1691 23.4933 46.4979 24.0556H43.3742C42.8481 23.3941 42.6508 22.6994 42.6508 21.1116C41.7302 23.2948 39.856 24.3864 36.9296 24.3864ZM37.8831 21.9717C40.8753 21.9717 42.4864 19.6231 42.4864 16.8114V15.356C42.1247 15.8191 41.2041 16.0837 39.8889 16.1829L37.7187 16.3814C35.2856 16.5799 34.332 17.6053 34.332 18.9946C34.332 20.7478 35.3842 21.9717 37.8831 21.9717Z" fill="white"/>
<path d="M30.1899 24.052H26.7046V0.5H30.1899V24.052Z" fill="white"/>
<path d="M18.0677 24.3864C12.6753 24.3864 9.68311 20.9462 9.68311 15.5214C9.68311 10.2618 12.5109 6.65625 17.8704 6.65625C23.2299 6.65625 26.0576 10.328 26.0576 15.2236C26.0576 15.5544 26.0248 15.8521 25.9919 16.1829H13.1685C13.2671 20.2185 15.1742 21.9717 18.0677 21.9717C20.4679 21.9717 21.9804 20.7147 22.5065 18.7631H25.6959C24.9397 22.2363 22.4737 24.3864 18.0677 24.3864ZM17.8704 9.07099C15.2399 9.07099 13.5302 10.6588 13.1685 13.8674H22.5723C22.2106 10.6588 20.5008 9.07099 17.8704 9.07099Z" fill="white"/>
<path d="M4.49609 24.0542H1.01074V12.3388L4.33168 6.98558V10.922C5.21946 7.91178 6.73197 6.78711 9.19801 6.78711C9.65834 6.78711 10.3159 6.88635 10.7434 6.98558V10.0619L9.06649 9.99573C6.30452 9.99573 4.49609 12.1459 4.49609 15.9499V24.0542Z" fill="white"/>
</g>
</g>
</g>
</g>
<defs>
<clipPath id="clip0_233_16533">
<rect width="65" height="25" fill="white" transform="translate(0.580078)"/>
</clipPath>
<clipPath id="clip1_233_16533">
<rect width="65" height="25" fill="white" transform="translate(0.580078)"/>
</clipPath>
<clipPath id="clip2_233_16533">
<rect width="65" height="24" fill="white" transform="translate(0.580078 0.5)"/>
</clipPath>
</defs>
</svg>
