<svg width="105" height="25" viewBox="0 0 105 25" fill="none" xmlns="http://www.w3.org/2000/svg">
<g clip-path="url(#clip0_233_16536)">
<g clip-path="url(#clip1_233_16536)">
<g clip-path="url(#clip2_233_16536)">
<g opacity="0.4">
<path d="M104.442 21.4904H100.527V9.58293C100.527 6.69851 99.4933 5.21932 96.7975 5.21932C93.9539 5.21932 92.1074 7.36414 92.1074 10.8402V21.4904H88.1929V2.40886H91.9228V5.73704C92.9568 3.51825 94.8033 2.03906 97.9792 2.03906C102.337 2.03906 104.442 4.25785 104.442 8.88031V21.4904Z" fill="white"/>
<path d="M77.2857 21.8602C71.2293 21.8602 67.8687 18.0143 67.8687 11.9496C67.8687 5.88495 71.2293 2.03906 77.2857 2.03906C83.3422 2.03906 86.7028 5.88495 86.7028 11.9496C86.7028 18.0143 83.3422 21.8602 77.2857 21.8602ZM77.2857 18.8648C80.794 18.8648 82.7882 16.5721 82.7882 11.9496C82.7882 7.36414 80.794 5.03442 77.2857 5.03442C73.7774 5.03442 71.7832 7.36414 71.7832 11.9496C71.7832 16.5721 73.7774 18.8648 77.2857 18.8648Z" fill="white"/>
<path d="M69.3652 21.4878H65.0075L60.1328 14.6465L55.2212 21.4878H50.9004L57.8801 11.5772L51.2697 2.40625H55.5905L60.1328 8.76676L64.6382 2.40625H68.9959L62.3855 11.5772L69.3652 21.4878Z" fill="white"/>
<path d="M43.4194 21.8602C37.363 21.8602 34.0024 18.0143 34.0024 11.9496C34.0024 6.06985 37.1783 2.03906 43.1978 2.03906C49.2173 2.03906 52.3933 6.14381 52.3933 11.6168C52.3933 11.9866 52.3564 12.3194 52.3194 12.6892H37.9169C38.0277 17.2008 40.1696 19.1607 43.4194 19.1607C46.1153 19.1607 47.814 17.7555 48.4049 15.5737H51.9871C51.1377 19.4565 48.368 21.8602 43.4194 21.8602ZM43.1978 4.73858C40.2435 4.73858 38.3231 6.51361 37.9169 10.1006H48.4788C48.0725 6.51361 46.1522 4.73858 43.1978 4.73858Z" fill="white"/>
<path d="M24.4305 0.5L18.2755 5.89288L0.580078 0.5L18.2755 24.3827L24.4305 18.9899V0.5Z" fill="white"/>
</g>
</g>
</g>
</g>
<defs>
<clipPath id="clip0_233_16536">
<rect width="104" height="25" fill="white" transform="translate(0.580078)"/>
</clipPath>
<clipPath id="clip1_233_16536">
<rect width="104" height="25" fill="white" transform="translate(0.580078)"/>
</clipPath>
<clipPath id="clip2_233_16536">
<rect width="104" height="24" fill="white" transform="translate(0.580078 0.5)"/>
</clipPath>
</defs>
</svg>
