  
        <svg className="pt-2" width="105" height="26" viewBox="0 0 105 26" fill="none" xmlns="http://www.w3.org/2000/svg">
          <g clipPath="url(#clip0_3338_130838)">
            <g clipPath="url(#clip1_3338_130838)">
              <g clipPath="url(#clip2_3338_130838)">
                <g opacity="0.4">
                  <path d="M104.468 21.8332H100.553V9.92571C100.553 7.04129 99.5191 5.5621 96.8233 5.5621C93.9797 5.5621 92.1332 7.70692 92.1332 11.183V21.8332H88.2188V2.75164H91.9486V6.07982C92.9826 3.86103 94.8292 2.38184 98.0051 2.38184C102.363 2.38184 104.468 4.60063 104.468 9.22309V21.8332Z" fill="white" />
                  <path d="M77.3154 22.203C71.259 22.203 67.8984 18.3571 67.8984 12.2924C67.8984 6.22773 71.259 2.38184 77.3154 2.38184C83.3719 2.38184 86.7325 6.22773 86.7325 12.2924C86.7325 18.3571 83.3719 22.203 77.3154 22.203ZM77.3154 19.2076C80.8237 19.2076 82.8179 16.9149 82.8179 12.2924C82.8179 7.70691 80.8237 5.3772 77.3154 5.3772C73.8071 5.3772 71.8129 7.70691 71.8129 12.2924C71.8129 16.9149 73.8071 19.2076 77.3154 19.2076Z" fill="white" />
                  <path d="M69.3945 21.8316H65.0368L60.1621 14.9902L55.2505 21.8316H50.9297L57.9094 11.9209L51.299 2.75H55.6198L60.1621 9.11051L64.6675 2.75H69.0252L62.4148 11.9209L69.3945 21.8316Z" fill="white" />
                  <path d="M43.4482 22.203C37.3918 22.203 34.0312 18.3571 34.0312 12.2924C34.0312 6.41262 37.2072 2.38184 43.2267 2.38184C49.2462 2.38184 52.4221 6.48659 52.4221 11.9596C52.4221 12.3294 52.3852 12.6622 52.3482 13.032H37.9457C38.0565 17.5436 40.1985 19.5035 43.4482 19.5035C46.1441 19.5035 47.8428 18.0983 48.4338 15.9165H52.0159C51.1665 19.7993 48.3968 22.203 43.4482 22.203ZM43.2267 5.08136C40.2724 5.08136 38.3519 6.85639 37.9457 10.4434H48.5076C48.1013 6.85639 46.1811 5.08136 43.2267 5.08136Z" fill="white" />
                  <path d="M24.4598 0.84375L18.3048 6.23663L0.609375 0.84375L18.3048 24.7264L24.4598 19.3337V0.84375Z" fill="white" />
                </g>
              </g>
            </g>
          </g>
          <defs>
            <clipPath id="clip0_3338_130838">
              <rect width="104" height="25" fill="white" transform="translate(0.609375 0.34375)" />
            </clipPath>
            <clipPath id="clip1_3338_130838">
              <rect width="104" height="25" fill="white" transform="translate(0.609375 0.34375)" />
            </clipPath>
            <clipPath id="clip2_3338_130838">
              <rect width="104" height="24" fill="white" transform="translate(0.609375 0.84375)" />
            </clipPath>
          </defs>
        </svg>