<svg width="83" height="25" viewBox="0 0 83 25" fill="none" xmlns="http://www.w3.org/2000/svg">
<g clip-path="url(#clip0_233_16539)">
<g clip-path="url(#clip1_233_16539)">
<g clip-path="url(#clip2_233_16539)">
<g opacity="0.4">
<path fill-rule="evenodd" clip-rule="evenodd" d="M18.3608 10.6165H12.2397V2.82422H18.3608V10.6165Z" fill="white"/>
<path fill-rule="evenodd" clip-rule="evenodd" d="M9.42872 22.3001H3.30762V14.5078H9.42872V22.3001Z" fill="white"/>
<path fill-rule="evenodd" clip-rule="evenodd" d="M7.4473 2.71094L19.8969 17.002L14.1693 22.172L1.71973 7.88089L7.4473 2.71094Z" fill="white"/>
<path d="M75.7896 21.4931H72.3188V4.39993H75.6258V8.34196C76.5098 5.32747 78.016 4.20117 80.4717 4.20117C80.9301 4.20117 81.585 4.30055 82.0107 4.39993V7.48068L80.3407 7.41442C77.5903 7.41442 75.7896 9.56763 75.7896 13.3772V21.4931Z" fill="white"/>
<path d="M63.7234 21.826C58.3536 21.826 55.374 18.3809 55.374 12.9482C55.374 7.68107 58.1899 4.07031 63.527 4.07031C68.864 4.07031 71.6799 7.74733 71.6799 12.6501C71.6799 12.9813 71.6471 13.2795 71.6144 13.6107H58.8448C58.943 17.6521 60.8421 19.4078 63.7234 19.4078C66.1136 19.4078 67.6198 18.149 68.1437 16.1946H71.3197C70.5666 19.6728 68.1109 21.826 63.7234 21.826ZM63.527 6.48853C60.9075 6.48853 59.2049 8.07859 58.8448 11.2919H68.2091C67.849 8.07859 66.1464 6.48853 63.527 6.48853Z" fill="white"/>
<path d="M47.43 21.826C42.0602 21.826 39.0806 18.3809 39.0806 12.9482C39.0806 7.68107 41.8965 4.07031 47.2335 4.07031C52.5705 4.07031 55.3864 7.74733 55.3864 12.6501C55.3864 12.9813 55.3537 13.2795 55.3209 13.6107H42.5513C42.6495 17.6521 44.5486 19.4078 47.43 19.4078C49.8202 19.4078 51.3263 18.149 51.8502 16.1946H55.0262C54.2732 19.6728 51.8175 21.826 47.43 21.826ZM47.2335 6.48853C44.6141 6.48853 42.9115 8.07859 42.5513 11.2919H51.9157C51.5555 8.07859 49.8529 6.48853 47.2335 6.48853Z" fill="white"/>
<path d="M39.2448 21.4955H25.8203V19.1435L34.89 6.91994H26.1478V4.40234H38.9174V6.75431L29.8477 18.9779H39.2448V21.4955Z" fill="white"/>
</g>
</g>
</g>
</g>
<defs>
<clipPath id="clip0_233_16539">
<rect width="82" height="25" fill="white" transform="translate(0.580078)"/>
</clipPath>
<clipPath id="clip1_233_16539">
<rect width="82" height="25" fill="white" transform="translate(0.580078)"/>
</clipPath>
<clipPath id="clip2_233_16539">
<rect width="82" height="24" fill="white" transform="translate(0.580078 0.5)"/>
</clipPath>
</defs>
</svg>
