<svg width="62" height="25" viewBox="0 0 62 25" fill="none" xmlns="http://www.w3.org/2000/svg">
<g clip-path="url(#clip0_233_16542)">
<g clip-path="url(#clip1_233_16542)">
<g opacity="0.4">
<path d="M52.7371 22.8979C47.5652 22.8979 44.6714 19.6355 44.6714 14.571C44.6714 9.5376 47.5652 6.24414 52.7371 6.24414C57.9398 6.24414 60.8336 9.5376 60.8336 14.571C60.8336 19.6355 57.9398 22.8979 52.7371 22.8979ZM52.7371 19.853C55.3846 19.853 56.8623 18.113 56.8623 14.571C56.8623 11.029 55.3846 9.28903 52.7371 9.28903C50.1204 9.28903 48.6427 11.029 48.6427 14.571C48.6427 18.113 50.1204 19.853 52.7371 19.853Z" fill="white"/>
<path d="M43.6366 22.5881H39.6653V6.55584H43.6366V22.5881ZM41.6663 4.16343C40.1886 4.16343 39.3574 3.26239 39.3574 2.08171C39.3574 0.901041 40.1886 0 41.6663 0C43.144 0 43.9444 0.901041 43.9444 2.08171C43.9444 3.26239 43.144 4.16343 41.6663 4.16343Z" fill="white"/>
<path d="M38.0123 22.5888H34.041V0.466797H38.0123V22.5888Z" fill="white"/>
<path d="M25.2552 22.8979C20.0833 22.8979 17.1895 19.6355 17.1895 14.571C17.1895 9.63081 19.9601 6.24414 25.0705 6.24414C30.2116 6.24414 32.9822 9.66188 32.9822 14.3846C32.9822 14.7264 32.9514 15.0371 32.9206 15.4099H21.1607C21.2839 18.6723 22.8231 20.1637 25.2552 20.1637C27.2254 20.1637 28.5184 19.1694 28.9802 17.5227H32.6436C31.9663 20.8161 29.5343 22.8979 25.2552 22.8979ZM25.0705 8.97833C22.8847 8.97833 21.4994 10.2522 21.1607 12.8H29.0109C28.6723 10.2522 27.2562 8.97833 25.0705 8.97833Z" fill="white"/>
<path d="M12.5122 4.4668L3.5332 14.1763L12.5122 23.8858" stroke="white" stroke-width="3"/>
</g>
</g>
</g>
<defs>
<clipPath id="clip0_233_16542">
<rect width="61" height="25" fill="white" transform="translate(0.580078)"/>
</clipPath>
<clipPath id="clip1_233_16542">
<rect width="61" height="25" fill="white" transform="translate(0.580078)"/>
</clipPath>
</defs>
</svg>
