
        <svg className="pt-2" width="80" height="26" viewBox="0 0 62 26" fill="none" xmlns="http://www.w3.org/2000/svg">
          <g clip-path="url(#clip0_3338_130844)">
            <g clip-path="url(#clip1_3338_130844)">
              <g clip-path="url(#clip2_3338_130844)">
                <g opacity="0.4">
                  <path d="M52.7688 23.2407C47.5969 23.2407 44.7031 19.9783 44.7031 14.9138C44.7031 9.88037 47.5969 6.58691 52.7688 6.58691C57.9715 6.58691 60.8653 9.88037 60.8653 14.9138C60.8653 19.9783 57.9715 23.2407 52.7688 23.2407ZM52.7688 20.1958C55.4163 20.1958 56.894 18.4558 56.894 14.9138C56.894 11.3718 55.4163 9.6318 52.7688 9.6318C50.1521 9.6318 48.6744 11.3718 48.6744 14.9138C48.6744 18.4558 50.1521 20.1958 52.7688 20.1958Z" fill="white" />
                  <path d="M43.662 22.9319H39.6907V6.89959H43.662V22.9319ZM41.6917 4.50718C40.214 4.50718 39.3828 3.60614 39.3828 2.42546C39.3828 1.24479 40.214 0.34375 41.6917 0.34375C43.1694 0.34375 43.9698 1.24479 43.9698 2.42546C43.9698 3.60614 43.1694 4.50718 41.6917 4.50718Z" fill="white" />
                  <path d="M38.0416 22.9326H34.0703V0.810547H38.0416V22.9326Z" fill="white" />
                  <path d="M25.2845 23.2407C20.1126 23.2407 17.2188 19.9783 17.2188 14.9138C17.2188 9.97359 19.9894 6.58691 25.0998 6.58691C30.2409 6.58691 33.0114 10.0047 33.0114 14.7274C33.0114 15.0692 32.9806 15.3799 32.9499 15.7527H21.19C21.3132 19.0151 22.8524 20.5065 25.2845 20.5065C27.2547 20.5065 28.5477 19.5122 29.0095 17.8655H32.6728C31.9956 21.1589 29.5636 23.2407 25.2845 23.2407ZM25.0998 9.3211C22.914 9.3211 21.5287 10.595 21.19 13.1428H29.0401C28.7015 10.595 27.2854 9.3211 25.0998 9.3211Z" fill="white" />
                  <path d="M12.5415 4.81055L3.5625 14.52L12.5415 24.2295" stroke="white" stroke-width="3" />
                </g>
              </g>
            </g>
          </g>
          <defs>
            <clipPath id="clip0_3338_130844">
              <rect width="61" height="25" fill="white" transform="translate(0.609375 0.34375)" />
            </clipPath>
            <clipPath id="clip1_3338_130844">
              <rect width="61" height="25" fill="white" transform="translate(0.609375 0.34375)" />
            </clipPath>
            <clipPath id="clip2_3338_130844">
              <rect width="61" height="25" fill="white" transform="translate(0.609375 0.34375)" />
            </clipPath>
          </defs>
        </svg>