<svg width="86" height="84" viewBox="0 0 86 84" fill="none" xmlns="http://www.w3.org/2000/svg">
<g clip-path="url(#clip0_146_10775)">
<path d="M15.6022 0.656006H70.6981C79.0513 0.656006 85.8051 7.40983 85.8051 15.763V68.7262C85.8051 77.0794 79.0513 83.8333 70.6981 83.8333H15.6022C7.24894 83.8333 0.495117 77.0794 0.495117 68.7262V15.763C0.495117 7.40983 7.24894 0.656006 15.6022 0.656006Z" fill="#00005B"/>
<path d="M34.7612 50.42H21.5382L18.8366 58.8087C18.7656 59.1284 18.481 59.3417 18.1613 59.3062H11.4788C11.0877 59.3062 10.9812 59.0929 11.0877 58.6664L22.5336 25.8575C22.64 25.502 22.7468 25.1822 22.8891 24.7557C23.0314 24.0094 23.1024 23.2273 23.1024 22.4451C23.0669 22.2674 23.2089 22.0896 23.3867 22.0541H32.593C32.8417 22.0541 33.0195 22.1605 33.055 22.3383L46.0293 58.5951C46.1361 58.9861 46.0293 59.1639 45.6737 59.1639H38.2446C37.9958 59.1994 37.7471 59.0216 37.6758 58.7729L34.7609 50.2419V50.4197L34.7612 50.42ZM23.5999 43.3464H32.6285C32.4152 42.6001 32.1309 41.7112 31.8109 40.7871C31.4908 39.8276 31.171 38.7967 30.8513 37.7303C30.4957 36.6284 30.176 35.5621 29.8204 34.4602C29.4648 33.3583 29.1451 32.3274 28.8608 31.2966C28.5766 30.3012 28.3278 29.3771 28.0787 28.524H28.0077C27.6877 30.0524 27.2969 31.5808 26.7991 33.1096C26.2661 34.8158 25.7327 36.5929 25.1638 38.3705C24.7018 40.1831 24.133 41.8538 23.5999 43.3468V43.3464ZM66.9657 47.2209H55.6977C55.84 48.3227 56.1952 49.4246 56.7995 50.3845C57.4394 51.3441 58.3279 52.0907 59.3943 52.5173C60.8163 53.1216 62.3802 53.4413 63.9441 53.4058C65.1882 53.3704 66.4324 53.2635 67.6407 53.0148C68.7426 52.8725 69.809 52.5882 70.8044 52.1972C70.9821 52.0549 71.0886 52.1262 71.0886 52.4814V57.9201C71.0886 58.0624 71.0531 58.2044 71.0176 58.3467C70.9466 58.4535 70.8753 58.5244 70.7689 58.5954C69.6315 59.093 68.4583 59.4485 67.2142 59.6618C65.5435 59.9815 63.8727 60.1238 62.1665 60.0884C59.465 60.0884 57.1902 59.6618 55.3417 58.8442C53.6001 58.0975 52.0716 56.9247 50.863 55.4673C49.7256 54.0812 48.908 52.5169 48.4105 50.8107C47.913 49.14 47.6638 47.3983 47.6638 45.6211C47.6638 43.7017 47.9481 41.8177 48.5524 39.9692C49.1213 38.192 50.0099 36.5568 51.2182 35.0993C52.3914 33.6774 53.8485 32.54 55.5192 31.7224C57.1899 30.9048 59.1804 30.6206 61.4554 30.6206C63.3394 30.5851 65.2234 30.9406 66.9651 31.7224C68.4225 32.3623 69.7022 33.3222 70.6975 34.566C71.6216 35.7747 72.3683 37.1253 72.8303 38.6182C73.2923 40.0402 73.5056 41.4973 73.5056 42.9547C73.5056 43.8078 73.4701 44.5544 73.4346 45.2297C73.3637 45.905 73.3278 46.4029 73.2923 46.7227C73.2568 46.9714 73.0436 47.1847 72.7948 47.1847C72.5815 47.1847 72.1905 47.2202 71.6216 47.2557C71.0528 47.3267 70.3775 47.3625 69.5598 47.3625C68.7422 47.3625 67.8891 47.2202 66.9651 47.2202L66.9657 47.2209ZM55.6977 42.0313H63.1978C64.1219 42.0313 64.7975 42.0313 65.2237 41.9958C65.508 41.9603 65.7926 41.889 66.0413 41.7115V41.356C66.0413 40.8939 65.9703 40.4674 65.8281 40.0408C65.1882 38.0504 63.3042 36.6994 61.207 36.7707C59.252 36.6639 57.4035 37.6948 56.4794 39.4723C56.0529 40.2899 55.8041 41.143 55.6973 42.0316L55.6977 42.0313Z" fill="#9999FF"/>
</g>
<defs>
<clipPath id="clip0_146_10775">
<rect width="85.31" height="83.1943" fill="white" transform="translate(0.495117 0.647461)"/>
</clipPath>
</defs>
</svg>
